<svg id="Layer_1" data-name="Layer 1" xmlns="http://www.w3.org/2000/svg" xmlns:xlink="http://www.w3.org/1999/xlink" viewBox="0 0 558.67 719.01"><defs><style>.cls-1{fill:url(#linear-gradient);}.cls-2{fill:url(#linear-gradient-2);}.cls-3{fill:url(#linear-gradient-3);}.cls-4{fill:url(#linear-gradient-4);}.cls-5{fill:#3d3d3d;}.cls-6{fill:none;}</style><linearGradient id="linear-gradient" x1="472.62" y1="273.93" x2="903.2" y2="273.93" gradientUnits="userSpaceOnUse"><stop offset="0" stop-color="#002f7f"/><stop offset="1" stop-color="#0072d4"/></linearGradient><linearGradient id="linear-gradient-2" x1="531.17" y1="467.59" x2="962.84" y2="467.59" xlink:href="#linear-gradient"/><linearGradient id="linear-gradient-3" x1="404.17" y1="304.7" x2="616.36" y2="304.7" gradientUnits="userSpaceOnUse"><stop offset="0" stop-color="#002f7f"/><stop offset="1" stop-color="#121212"/></linearGradient><linearGradient id="linear-gradient-4" x1="462.71" y1="482.21" x2="845.06" y2="482.21" xlink:href="#linear-gradient-3"/></defs><title>bannerLogo</title><path class="cls-1" d="M903.12,73.69l.08.48c-.66,1-1.3,2-2,3q-16.49,23.43-33,46.87-38.38,54.51-76.78,109-4.89,6.91-9.75,13.84l-28.78,40.86L675.55,397.53q-31,44.13-62.12,88.26-12.55,17.83-25.14,35.68c-.46.64-.94,1.26-1.49,2-.71-.44-1.33-.79-1.92-1.19l-1.14-.77a229.09,229.09,0,0,1-26.2-20.67l-2.67-2.49c-39.39-37.24-63.85-83-75.65-135.83a281.62,281.62,0,0,1,17.16-173.79c20.22-45.27,50.78-82.18,91-111a288.38,288.38,0,0,1,29-18.3A280,280,0,0,1,695,30.48c1.09-.22,2.14-.61,3.21-.92l12.29-2.14c1.11-.07,2.23-.1,3.34-.21,7.07-.72,14.13-1.64,21.21-2.16a251.79,251.79,0,0,1,48.79,1.28C823.46,31.14,860,44.26,893.16,66.72,896.51,69,899.8,71.37,903.12,73.69Z" transform="translate(-404.17 -24.41)"/><path class="cls-2" d="M959.67,400.76c8.31,54.51.2,106.65-23.26,156.42a272.4,272.4,0,0,1-82.75,102.25,280.19,280.19,0,0,1-75.56,40.84,290.64,290.64,0,0,1-27.91,8.45h0a266.73,266.73,0,0,1-35.66,6.38c-41.56,4.54-82.11.26-121.42-14.3a240.16,240.16,0,0,1-59.7-32.28c-.76-.57-1.49-1.17-2.22-1.74Q671,468.11,811,269.43,828,245.22,845.06,221c.62-.89,1.25-1.77,1.86-2.65.33.2,1.15.62,1.92,1.11a205.67,205.67,0,0,1,43.77,36.72c20.62,22.59,36.45,48.23,48.31,76.37a264.83,264.83,0,0,1,14.29,43.93C957,384.49,958.42,392.62,959.67,400.76Z" transform="translate(-404.17 -24.41)"/><path class="cls-3" d="M616.36,59.36a288.38,288.38,0,0,0-29,18.3c-40.22,28.87-70.78,65.78-91,111.05A281.62,281.62,0,0,0,479.22,362.5c11.8,52.84,36.26,98.59,75.65,135.83l2.67,2.49a229.09,229.09,0,0,0,26.2,20.67c-.4.56-.8,1.13-1.19,1.7l-62.72,24.86c-.45.65-.93,1.26-1.48,2-.71-.45-1.33-.8-1.92-1.19a229.23,229.23,0,0,1-27.34-21.45c-41-37.68-66.25-84.29-78.32-138.31A281.62,281.62,0,0,1,427.93,215.3c20.22-45.27,50.78-82.18,91-111A279.63,279.63,0,0,1,616.36,59.36Z" transform="translate(-404.17 -24.41)"/><path class="cls-4" d="M811,269.43Q671,468.26,531.17,666.78c.73.57,1.46,1.17,2.22,1.74a240.16,240.16,0,0,0,59.7,32.28c39.31,14.56,79.86,18.84,121.42,14.3a266.73,266.73,0,0,0,35.66-6.38,284.16,284.16,0,0,1-40.52,18.14,278.9,278.9,0,0,1-63.59,14.83c-41.56,4.54-82.11.26-121.42-14.3a240.19,240.19,0,0,1-59.7-32.29c-.76-.57-1.5-1.16-2.23-1.73q59.94-85.1,119.84-170.18l2.33-.93c.59.4,1.21.75,1.92,1.19.55-.72,1-1.34,1.49-2q12.57-17.84,25.14-35.68,31.07-44.12,62.12-88.26l77.34-109.81,28.78-40.86L845.06,221Q828,245.21,811,269.43Z" transform="translate(-404.17 -24.41)"/><path class="cls-5" d="M584.88,522.26l-2.33.93c.39-.57.79-1.14,1.19-1.7Z" transform="translate(-404.17 -24.41)"/><line class="cls-6" x1="444.68" y1="195.04" x2="440.89" y2="196.59"/></svg>