<svg id="Layer_1" data-name="Layer 1" xmlns="http://www.w3.org/2000/svg" viewBox="0 0 468.26 678.69"><title>logo</title><path d="M917.2,122.66v.48c-.82.86-1.63,1.74-2.48,2.58l-40.56,40.5L779.8,260.44l-47.35,47.28-95,94.9L561.06,478.9q-15.43,15.42-30.9,30.83c-.56.56-1.14,1.08-1.8,1.7-.63-.56-1.18-1-1.69-1.5a229.44,229.44,0,0,1-23.25-25.82C469.53,440,452.62,389.69,450,334.4a281.65,281.65,0,0,1,46.74-168.26C524.44,125,560.89,93.9,605.47,72.36a279.7,279.7,0,0,1,114.11-28c1.11,0,2.21-.24,3.32-.36h12.47c1.11.12,2.22.29,3.33.37,7.09.5,14.2.81,21.27,1.51a251.71,251.71,0,0,1,47.84,9.64c38.22,11.54,72,30.75,100.77,58.56C911.49,116.9,914.33,119.8,917.2,122.66Z" transform="translate(-448.94 -44)" style="fill:#dcdcdc"/><path d="M916.75,454.58c-1.17,55.13-18.11,105.1-49.77,150.1a272.37,272.37,0,0,1-99.07,86.53,284.62,284.62,0,0,1-146.64,30.95c-41.73-2.66-80.94-13.84-117.17-34.93a240.32,240.32,0,0,1-53.27-42.06c-.65-.69-1.27-1.4-1.89-2.09L837,255.52c.29.25,1,.81,1.7,1.42a205.64,205.64,0,0,1,36.81,43.69C892,326.43,903.14,354.4,910,384.16a264.4,264.4,0,0,1,6.54,45.73C917,438.1,916.92,446.35,916.75,454.58Z" transform="translate(-448.94 -44)" style="fill:#dcdcdc"/></svg>